  0
SECTION
  2
HEADER
  9
$ACADVER
  1
AC1014
  9
$HANDSEED
  5
FFFF
  9
$MEASUREMENT
 70
     1
  0
ENDSEC
  0
SECTION
  2
TABLES
  0
TABLE
  2
VPORT
  5
8
330
0
100
AcDbSymbolTable
 70
     4
  0
VPORT
  5
2E
330
8
100
AcDbSymbolTableRecord
100
AcDbViewportTableRecord
  2
*ACTIVE
 70
     0
 10
0.0
 20
0.0
 11
1.0
 21
1.0
 12
210.0
 22
148.5
 13
0.0
 23
0.0
 14
10.0
 24
10.0
 15
10.0
 25
10.0
 16
0.0
 26
0.0
 36
1.0
 17
0.0
 27
0.0
 37
0.0
 40
341.0
 41
1.24
 42
50.0
 43
0.0
 44
0.0
 50
0.0
 51
0.0
 71
     0
 72
   100
 73
     1
 74
     3
 75
     0
 76
     0
 77
     0
 78
     0
  0
ENDTAB
  0
TABLE
  2
LTYPE
  5
5
330
0
100
AcDbSymbolTable
 70
     1
  0
LTYPE
  5
14
330
5
100
AcDbSymbolTableRecord
100
AcDbLinetypeTableRecord
  2
BYBLOCK
 70
     0
  3

 72
    65
 73
     0
 40
0.0
  0
LTYPE
  5
15
330
5
100
AcDbSymbolTableRecord
100
AcDbLinetypeTableRecord
  2
BYLAYER
 70
     0
  3

 72
    65
 73
     0
 40
0.0
  0
LTYPE
  5
16
330
5
100
AcDbSymbolTableRecord
100
AcDbLinetypeTableRecord
  2
CONTINUOUS
 70
     0
  3
Solid line
 72
    65
 73
     0
 40
0.0
  0
ENDTAB
  0
TABLE
  2
LAYER
  5
2
100
AcDbSymbolTable
 70
2
  0
LAYER
  5
50
100
AcDbSymbolTableRecord
100
AcDbLayerTableRecord
  2
0
 70
0
  6
CONTINUOUS
  0
LAYER
  5
51
100
AcDbSymbolTableRecord
100
AcDbLayerTableRecord
  2
S&B_Large
 70
0
  6
CONTINUOUS
  0
ENDTAB
  0
TABLE
  2
STYLE
  5
3
330
0
100
AcDbSymbolTable
 70
     1
  0
STYLE
  5
11
330
3
100
AcDbSymbolTableRecord
100
AcDbTextStyleTableRecord
  2
STANDARD
 70
     0
 40
0.0
 41
1.0
 50
0.0
 71
     0
 42
2.5
  3
txt
  4

  0
ENDTAB
  0
TABLE
  2
VIEW
  5
6
330
0
100
AcDbSymbolTable
 70
     0
  0
ENDTAB
  0
TABLE
  2
UCS
  5
7
330
0
100
AcDbSymbolTable
 70
     0
  0
ENDTAB
  0
TABLE
  2
APPID
  5
9
330
0
100
AcDbSymbolTable
 70
     2
  0
APPID
  5
12
330
9
100
AcDbSymbolTableRecord
100
AcDbRegAppTableRecord
  2
ACAD
 70
     0
  0
ENDTAB
  0
TABLE
  2
DIMSTYLE
  5
A
330
0
100
AcDbSymbolTable
 70
     1
  0
DIMSTYLE
105
27
330
A
100
AcDbSymbolTableRecord
100
AcDbDimStyleTableRecord
  2
ISO-25
 70
     0
  3

  4

  5

  6

  7

 40
1.0
 41
2.5
 42
0.625
 43
3.75
 44
1.25
 45
0.0
 46
0.0
 47
0.0
 48
0.0
140
2.5
141
2.5
142
0.0
143
0.03937007874016
144
1.0
145
0.0
146
1.0
147
0.625
 71
     0
 72
     0
 73
     0
 74
     0
 75
     0
 76
     0
 77
     1
 78
     8
170
     0
171
     3
172
     1
173
     0
174
     0
175
     0
176
     0
177
     0
178
     0
270
     2
271
     2
272
     2
273
     2
274
     3
340
11
275
     0
280
     0
281
     0
282
     0
283
     0
284
     8
285
     0
286
     0
287
     3
288
     0
  0
ENDTAB
  0
TABLE
  2
BLOCK_RECORD
  5
1
330
0
100
AcDbSymbolTable
 70
     1
  0
BLOCK_RECORD
  5
1F
330
1
100
AcDbSymbolTableRecord
100
AcDbBlockTableRecord
  2
*MODEL_SPACE
  0
BLOCK_RECORD
  5
1B
330
1
100
AcDbSymbolTableRecord
100
AcDbBlockTableRecord
  2
*PAPER_SPACE
  0
ENDTAB
  0
ENDSEC
  0
SECTION
  2
BLOCKS
  0
BLOCK
  5
20
330
1F
100
AcDbEntity
  8
0
100
AcDbBlockBegin
  2
*MODEL_SPACE
 70
     0
 10
0.0
 20
0.0
 30
0.0
  3
*MODEL_SPACE
  1

  0
ENDBLK
  5
21
330
1F
100
AcDbEntity
  8
0
100
AcDbBlockEnd
  0
BLOCK
  5
1C
330
1B
100
AcDbEntity
 67
     1
  8
0
100
AcDbBlockBegin
  2
*PAPER_SPACE
  1

  0
ENDBLK
  5
1D
330
1B
100
AcDbEntity
 67
     1
  8
0
100
AcDbBlockEnd
  0
ENDSEC
  0
SECTION
  2
ENTITIES
  0
SPLINE
  5
100
100
AcDbEntity
  8
S&B_Large
 62
7
100
AcDbSpline
 70
8
 71
3
 72
8
 73
4
 74
0
 40
0
 40
0
 40
0
 40
0
 40
1
 40
1
 40
1
 40
1
 10
597.679700
 20
596.084400
 30
0.0
 10
597.679700
 20
596.084400
 30
0.0
 10
665.465700
 20
607.777400
 30
0.0
 10
725.363700
 20
558.852400
 30
0.0
  0
SPLINE
  5
101
100
AcDbEntity
  8
S&B_Large
 62
7
100
AcDbSpline
 70
8
 71
3
 72
8
 73
4
 74
0
 40
0
 40
0
 40
0
 40
0
 40
1
 40
1
 40
1
 40
1
 10
725.363700
 20
558.852400
 30
0.0
 10
785.244700
 20
509.922400
 30
0.0
 10
785.244700
 20
461.607400
 30
0.0
 10
785.244700
 20
461.607400
 30
0.0
  0
LWPOLYLINE
  5
102
100
AcDbEntity
  8
S&B_Large
 62
7
100
AcDbPolyline
 90
2
 70
0
 10
597.679700
 20
403.753400
 30
0.0
 10
597.679700
 20
596.084400
 30
0.0
  0
SPLINE
  5
103
100
AcDbEntity
  8
S&B_Large
 62
7
100
AcDbSpline
 70
8
 71
3
 72
8
 73
4
 74
0
 40
0
 40
0
 40
0
 40
0
 40
1
 40
1
 40
1
 40
1
 10
746.030700
 20
461.607400
 30
0.0
 10
746.030700
 20
461.607400
 30
0.0
 10
738.228700
 20
496.885400
 30
0.0
 10
704.081700
 20
525.000400
 30
0.0
  0
SPLINE
  5
104
100
AcDbEntity
  8
S&B_Large
 62
7
100
AcDbSpline
 70
8
 71
3
 72
8
 73
4
 74
0
 40
0
 40
0
 40
0
 40
0
 40
1
 40
1
 40
1
 40
1
 10
704.081700
 20
525.000400
 30
0.0
 10
670.649700
 20
552.390400
 30
0.0
 10
638.107700
 20
556.376400
 30
0.0
 10
638.107700
 20
556.376400
 30
0.0
  0
LWPOLYLINE
  5
105
100
AcDbEntity
  8
S&B_Large
 62
7
100
AcDbPolyline
 90
2
 70
0
 10
785.244700
 20
461.607400
 30
0.0
 10
746.030700
 20
461.607400
 30
0.0
  0
SPLINE
  5
106
100
AcDbEntity
  8
S&B_Large
 62
7
100
AcDbSpline
 70
8
 71
3
 72
8
 73
4
 74
0
 40
0
 40
0
 40
0
 40
0
 40
1
 40
1
 40
1
 40
1
 10
786.768700
 20
444.985400
 30
0.0
 10
786.768700
 20
444.985400
 30
0.0
 10
798.617700
 20
370.820400
 30
0.0
 10
749.673700
 20
312.673400
 30
0.0
  0
SPLINE
  5
107
100
AcDbEntity
  8
S&B_Large
 62
7
100
AcDbSpline
 70
8
 71
3
 72
8
 73
4
 74
0
 40
0
 40
0
 40
0
 40
0
 40
1
 40
1
 40
1
 40
1
 10
749.673700
 20
312.673400
 30
0.0
 10
749.673700
 20
312.673400
 30
0.0
 10
693.437700
 20
238.802400
 30
0.0
 10
597.679700
 20
252.043400
 30
0.0
  0
LWPOLYLINE
  5
108
100
AcDbEntity
  8
S&B_Large
 62
7
100
AcDbPolyline
 90
3
 70
0
 10
638.107700
 20
556.376400
 30
0.0
 10
638.107700
 20
444.985400
 30
0.0
 10
786.768700
 20
444.985400
 30
0.0
  0
SPLINE
  5
109
100
AcDbEntity
  8
S&B_Large
 62
7
100
AcDbSpline
 70
8
 71
3
 72
8
 73
4
 74
0
 40
0
 40
0
 40
0
 40
0
 40
1
 40
1
 40
1
 40
1
 10
637.806700
 20
291.738400
 30
0.0
 10
637.806700
 20
291.738400
 30
0.0
 10
674.288700
 20
293.882400
 30
0.0
 10
714.409700
 20
333.275400
 30
0.0
  0
SPLINE
  5
10a
100
AcDbEntity
  8
S&B_Large
 62
7
100
AcDbSpline
 70
8
 71
3
 72
8
 73
4
 74
0
 40
0
 40
0
 40
0
 40
0
 40
1
 40
1
 40
1
 40
1
 10
714.409700
 20
333.275400
 30
0.0
 10
738.435700
 20
358.203400
 30
0.0
 10
746.639700
 20
387.753400
 30
0.0
 10
747.851700
 20
403.753400
 30
0.0
  0
LWPOLYLINE
  5
10b
100
AcDbEntity
  8
S&B_Large
 62
7
100
AcDbPolyline
 90
4
 70
0
 10
597.679700
 20
252.043400
 30
0.0
 10
597.679700
 20
387.123400
 30
0.0
 10
637.806700
 20
387.123400
 30
0.0
 10
637.806700
 20
291.738400
 30
0.0
  0
SPLINE
  5
10c
100
AcDbEntity
  8
S&B_Large
 62
7
100
AcDbSpline
 70
8
 71
3
 72
8
 73
4
 74
0
 40
0
 40
0
 40
0
 40
0
 40
1
 40
1
 40
1
 40
1
 10
46.217800
 20
415.966800
 30
0.0
 10
47.196800
 20
414.450800
 30
0.0
 10
50.248800
 20
409.729800
 30
0.0
 10
58.829800
 20
409.729800
 30
0.0
  0
SPLINE
  5
10d
100
AcDbEntity
  8
S&B_Large
 62
7
100
AcDbSpline
 70
8
 71
3
 72
8
 73
4
 74
0
 40
0
 40
0
 40
0
 40
0
 40
1
 40
1
 40
1
 40
1
 10
58.829800
 20
409.729800
 30
0.0
 10
60.270800
 20
409.729800
 30
0.0
 10
61.764800
 20
409.844800
 30
0.0
 10
63.205800
 20
410.427800
 30
0.0
  0
SPLINE
  5
10e
100
AcDbEntity
  8
S&B_Large
 62
7
100
AcDbSpline
 70
8
 71
3
 72
8
 73
4
 74
0
 40
0
 40
0
 40
0
 40
0
 40
1
 40
1
 40
1
 40
1
 10
63.205800
 20
410.427800
 30
0.0
 10
66.142800
 20
411.652800
 30
0.0
 10
66.662800
 20
413.751800
 30
0.0
 10
66.662800
 20
415.149800
 30
0.0
  0
SPLINE
  5
10f
100
AcDbEntity
  8
S&B_Large
 62
7
100
AcDbSpline
 70
8
 71
3
 72
8
 73
4
 74
0
 40
0
 40
0
 40
0
 40
0
 40
1
 40
1
 40
1
 40
1
 10
66.662800
 20
415.149800
 30
0.0
 10
66.662800
 20
417.773800
 30
0.0
 10
64.876800
 20
418.705800
 30
0.0
 10
63.609800
 20
419.229800
 30
0.0
  0
SPLINE
  5
110
100
AcDbEntity
  8
S&B_Large
 62
7
100
AcDbSpline
 70
8
 71
3
 72
8
 73
4
 74
0
 40
0
 40
0
 40
0
 40
0
 40
1
 40
1
 40
1
 40
1
 10
63.609800
 20
419.229800
 30
0.0
 10
62.688800
 20
419.578800
 30
0.0
 10
62.572800
 20
419.638800
 30
0.0
 10
58.887800
 20
420.511800
 30
0.0
  0
LWPOLYLINE
  5
111
100
AcDbEntity
  8
S&B_Large
 62
7
100
AcDbPolyline
 90
3
 70
0
 10
747.851700
 20
403.753400
 30
0.0
 10
597.679700
 20
403.753400
 30
0.0
 10
597.679700
 20
403.753400
 30
0.0
  0
SPLINE
  5
112
100
AcDbEntity
  8
S&B_Large
 62
7
100
AcDbSpline
 70
8
 71
3
 72
8
 73
4
 74
0
 40
0
 40
0
 40
0
 40
0
 40
1
 40
1
 40
1
 40
1
 10
53.991800
 20
421.562800
 30
0.0
 10
51.400800
 20
422.202800
 30
0.0
 10
50.133800
 20
422.494800
 30
0.0
 10
48.866800
 20
423.019800
 30
0.0
  0
SPLINE
  5
113
100
AcDbEntity
  8
S&B_Large
 62
7
100
AcDbSpline
 70
8
 71
3
 72
8
 73
4
 74
0
 40
0
 40
0
 40
0
 40
0
 40
1
 40
1
 40
1
 40
1
 10
48.866800
 20
423.019800
 30
0.0
 10
47.025800
 20
423.777800
 30
0.0
 10
42.013800
 20
426.283800
 30
0.0
 10
42.013800
 20
433.103800
 30
0.0
  0
SPLINE
  5
114
100
AcDbEntity
  8
S&B_Large
 62
7
100
AcDbSpline
 70
8
 71
3
 72
8
 73
4
 74
0
 40
0
 40
0
 40
0
 40
0
 40
1
 40
1
 40
1
 40
1
 10
42.013800
 20
433.103800
 30
0.0
 10
42.013800
 20
440.914800
 30
0.0
 10
48.520800
 20
445.929800
 30
0.0
 10
58.080800
 20
445.929800
 30
0.0
  0
SPLINE
  5
115
100
AcDbEntity
  8
S&B_Large
 62
7
100
AcDbSpline
 70
8
 71
3
 72
8
 73
4
 74
0
 40
0
 40
0
 40
0
 40
0
 40
1
 40
1
 40
1
 40
1
 10
58.080800
 20
445.929800
 30
0.0
 10
66.835800
 20
445.929800
 30
0.0
 10
71.556800
 20
441.556800
 30
0.0
 10
74.435800
 20
437.593800
 30
0.0
  0
LWPOLYLINE
  5
116
100
AcDbEntity
  8
S&B_Large
 62
7
100
AcDbPolyline
 90
2
 70
0
 10
58.887800
 20
420.511800
 30
0.0
 10
53.991800
 20
421.562800
 30
0.0
  0
SPLINE
  5
117
100
AcDbEntity
  8
S&B_Large
 62
7
100
AcDbSpline
 70
8
 71
3
 72
8
 73
4
 74
0
 40
0
 40
0
 40
0
 40
0
 40
1
 40
1
 40
1
 40
1
 10
68.217800
 20
432.870800
 30
0.0
 10
66.835800
 20
434.911800
 30
0.0
 10
64.185800
 20
438.991800
 30
0.0
 10
57.676800
 20
438.991800
 30
0.0
  0
SPLINE
  5
118
100
AcDbEntity
  8
S&B_Large
 62
7
100
AcDbSpline
 70
8
 71
3
 72
8
 73
4
 74
0
 40
0
 40
0
 40
0
 40
0
 40
1
 40
1
 40
1
 40
1
 10
57.676800
 20
438.991800
 30
0.0
 10
53.589800
 20
438.991800
 30
0.0
 10
50.017800
 20
437.125800
 30
0.0
 10
50.017800
 20
433.977800
 30
0.0
  0
SPLINE
  5
119
100
AcDbEntity
  8
S&B_Large
 62
7
100
AcDbSpline
 70
8
 71
3
 72
8
 73
4
 74
0
 40
0
 40
0
 40
0
 40
0
 40
1
 40
1
 40
1
 40
1
 10
50.017800
 20
433.977800
 30
0.0
 10
50.017800
 20
430.480800
 30
0.0
 10
53.818800
 20
429.782800
 30
0.0
 10
57.506800
 20
429.081800
 30
0.0
  0
LWPOLYLINE
  5
11a
100
AcDbEntity
  8
S&B_Large
 62
7
100
AcDbPolyline
 90
2
 70
0
 10
74.435800
 20
437.593800
 30
0.0
 10
68.217800
 20
432.870800
 30
0.0
  0
SPLINE
  5
11b
100
AcDbEntity
  8
S&B_Large
 62
7
100
AcDbSpline
 70
8
 71
3
 72
8
 73
4
 74
0
 40
0
 40
0
 40
0
 40
0
 40
1
 40
1
 40
1
 40
1
 10
61.707800
 20
428.149800
 30
0.0
 10
67.178800
 20
426.984800
 30
0.0
 10
74.897800
 20
424.709800
 30
0.0
 10
74.897800
 20
415.907800
 30
0.0
  0
SPLINE
  5
11c
100
AcDbEntity
  8
S&B_Large
 62
7
100
AcDbSpline
 70
8
 71
3
 72
8
 73
4
 74
0
 40
0
 40
0
 40
0
 40
0
 40
1
 40
1
 40
1
 40
1
 10
74.897800
 20
415.907800
 30
0.0
 10
74.897800
 20
406.464800
 30
0.0
 10
66.258800
 20
402.674800
 30
0.0
 10
57.620800
 20
402.674800
 30
0.0
  0
SPLINE
  5
11d
100
AcDbEntity
  8
S&B_Large
 62
7
100
AcDbSpline
 70
8
 71
3
 72
8
 73
4
 74
0
 40
0
 40
0
 40
0
 40
0
 40
1
 40
1
 40
1
 40
1
 10
57.620800
 20
402.674800
 30
0.0
 10
55.373800
 20
402.674800
 30
0.0
 10
52.839800
 20
402.909800
 30
0.0
 10
50.363800
 20
403.607800
 30
0.0
  0
SPLINE
  5
11e
100
AcDbEntity
  8
S&B_Large
 62
7
100
AcDbSpline
 70
8
 71
3
 72
8
 73
4
 74
0
 40
0
 40
0
 40
0
 40
0
 40
1
 40
1
 40
1
 40
1
 10
50.363800
 20
403.607800
 30
0.0
 10
47.656800
 20
404.422800
 30
0.0
 10
42.878800
 20
406.405800
 30
0.0
 10
39.825800
 20
411.418800
 30
0.0
  0
LWPOLYLINE
  5
11f
100
AcDbEntity
  8
S&B_Large
 62
7
100
AcDbPolyline
 90
2
 70
0
 10
57.506800
 20
429.081800
 30
0.0
 10
61.707800
 20
428.149800
 30
0.0
  0
LWPOLYLINE
  5
120
100
AcDbEntity
  8
S&B_Large
 62
7
100
AcDbPolyline
 90
3
 70
0
 10
39.825800
 20
411.418800
 30
0.0
 10
46.217800
 20
415.966800
 30
0.0
 10
46.217800
 20
415.966800
 30
0.0
  0
LWPOLYLINE
  5
121
100
AcDbEntity
  8
S&B_Large
 62
7
100
AcDbPolyline
 90
10
 70
0
 10
147.225100
 20
437.884800
 30
0.0
 10
135.996100
 20
437.884800
 30
0.0
 10
135.996100
 20
403.723800
 30
0.0
 10
128.395100
 20
403.723800
 30
0.0
 10
128.395100
 20
437.884800
 30
0.0
 10
117.395100
 20
437.884800
 30
0.0
 10
117.395100
 20
444.878800
 30
0.0
 10
147.225100
 20
444.878800
 30
0.0
 10
147.225100
 20
437.884800
 30
0.0
 10
147.225100
 20
437.884800
 30
0.0
  0
LWPOLYLINE
  5
122
100
AcDbEntity
  8
S&B_Large
 62
7
100
AcDbPolyline
 90
14
 70
0
 10
200.726600
 20
437.999500
 30
0.0
 10
200.726600
 20
428.325500
 30
0.0
 10
220.307600
 20
428.325500
 30
0.0
 10
220.307600
 20
421.679500
 30
0.0
 10
200.726600
 20
421.679500
 30
0.0
 10
200.726600
 20
410.662500
 30
0.0
 10
223.589600
 20
410.662500
 30
0.0
 10
223.589600
 20
403.724500
 30
0.0
 10
193.241600
 20
403.724500
 30
0.0
 10
193.241600
 20
444.878500
 30
0.0
 10
222.150600
 20
444.878500
 30
0.0
 10
222.150600
 20
437.999500
 30
0.0
 10
200.726600
 20
437.999500
 30
0.0
 10
200.726600
 20
437.999500
 30
0.0
  0
SPLINE
  5
123
100
AcDbEntity
  8
S&B_Large
 62
7
100
AcDbSpline
 70
8
 71
3
 72
8
 73
4
 74
0
 40
0
 40
0
 40
0
 40
0
 40
1
 40
1
 40
1
 40
1
 10
285.321100
 20
424.011000
 30
0.0
 10
286.935100
 20
424.011000
 30
0.0
 10
288.316100
 20
424.011000
 30
0.0
 10
289.641100
 20
424.361000
 30
0.0
  0
SPLINE
  5
124
100
AcDbEntity
  8
S&B_Large
 62
7
100
AcDbSpline
 70
8
 71
3
 72
8
 73
4
 74
0
 40
0
 40
0
 40
0
 40
0
 40
1
 40
1
 40
1
 40
1
 10
289.641100
 20
424.361000
 30
0.0
 10
294.364100
 20
425.527000
 30
0.0
 10
294.650100
 20
429.899000
 30
0.0
 10
294.650100
 20
431.355000
 30
0.0
  0
SPLINE
  5
125
100
AcDbEntity
  8
S&B_Large
 62
7
100
AcDbSpline
 70
8
 71
3
 72
8
 73
4
 74
0
 40
0
 40
0
 40
0
 40
0
 40
1
 40
1
 40
1
 40
1
 10
294.650100
 20
431.355000
 30
0.0
 10
294.650100
 20
434.386000
 30
0.0
 10
293.326100
 20
435.961000
 30
0.0
 10
292.636100
 20
436.601000
 30
0.0
  0
SPLINE
  5
126
100
AcDbEntity
  8
S&B_Large
 62
7
100
AcDbSpline
 70
8
 71
3
 72
8
 73
4
 74
0
 40
0
 40
0
 40
0
 40
0
 40
1
 40
1
 40
1
 40
1
 10
292.636100
 20
436.601000
 30
0.0
 10
290.734100
 20
438.233000
 30
0.0
 10
288.085100
 20
438.292000
 30
0.0
 10
285.610100
 20
438.292000
 30
0.0
  0
LWPOLYLINE
  5
127
100
AcDbEntity
  8
S&B_Large
 62
7
100
AcDbPolyline
 90
3
 70
0
 10
279.852100
 20
438.292000
 30
0.0
 10
279.852100
 20
424.011000
 30
0.0
 10
285.321100
 20
424.011000
 30
0.0
  0
LWPOLYLINE
  5
128
100
AcDbEntity
  8
S&B_Large
 62
7
100
AcDbPolyline
 90
3
 70
0
 10
285.610100
 20
438.292000
 30
0.0
 10
279.852100
 20
438.292000
 30
0.0
 10
279.852100
 20
438.292000
 30
0.0
  0
SPLINE
  5
129
100
AcDbEntity
  8
S&B_Large
 62
7
100
AcDbSpline
 70
8
 71
3
 72
8
 73
4
 74
0
 40
0
 40
0
 40
0
 40
0
 40
1
 40
1
 40
1
 40
1
 10
285.898100
 20
444.879000
 30
0.0
 10
288.143100
 20
444.879000
 30
0.0
 10
290.506100
 20
444.879000
 30
0.0
 10
292.866100
 20
444.239000
 30
0.0
  0
SPLINE
  5
12a
100
AcDbEntity
  8
S&B_Large
 62
7
100
AcDbSpline
 70
8
 71
3
 72
8
 73
4
 74
0
 40
0
 40
0
 40
0
 40
0
 40
1
 40
1
 40
1
 40
1
 10
292.866100
 20
444.239000
 30
0.0
 10
296.840100
 20
443.132000
 30
0.0
 10
302.426100
 20
439.516000
 30
0.0
 10
302.426100
 20
431.182000
 30
0.0
  0
SPLINE
  5
12b
100
AcDbEntity
  8
S&B_Large
 62
7
100
AcDbSpline
 70
8
 71
3
 72
8
 73
4
 74
0
 40
0
 40
0
 40
0
 40
0
 40
1
 40
1
 40
1
 40
1
 10
302.426100
 20
431.182000
 30
0.0
 10
302.426100
 20
425.702000
 30
0.0
 10
299.893100
 20
419.813000
 30
0.0
 10
292.636100
 20
418.181000
 30
0.0
  0
SPLINE
  5
12c
100
AcDbEntity
  8
S&B_Large
 62
7
100
AcDbSpline
 70
8
 71
3
 72
8
 73
4
 74
0
 40
0
 40
0
 40
0
 40
0
 40
1
 40
1
 40
1
 40
1
 10
292.636100
 20
418.181000
 30
0.0
 10
290.391100
 20
417.658000
 30
0.0
 10
288.259100
 20
417.658000
 30
0.0
 10
285.783100
 20
417.658000
 30
0.0
  0
LWPOLYLINE
  5
12d
100
AcDbEntity
  8
S&B_Large
 62
7
100
AcDbPolyline
 90
2
 70
0
 10
272.191100
 20
444.879000
 30
0.0
 10
285.898100
 20
444.879000
 30
0.0
  0
LWPOLYLINE
  5
12e
100
AcDbEntity
  8
S&B_Large
 62
7
100
AcDbPolyline
 90
6
 70
0
 10
285.783100
 20
417.658000
 30
0.0
 10
279.852100
 20
417.658000
 30
0.0
 10
279.852100
 20
403.724000
 30
0.0
 10
272.191100
 20
403.724000
 30
0.0
 10
272.191100
 20
444.879000
 30
0.0
 10
272.191100
 20
444.879000
 30
0.0
  0
LWPOLYLINE
  5
12f
100
AcDbEntity
  8
S&B_Large
 62
7
100
AcDbPolyline
 90
14
 70
0
 10
380.573200
 20
444.878900
 30
0.0
 10
380.573200
 20
403.723900
 30
0.0
 10
372.914200
 20
403.723900
 30
0.0
 10
372.914200
 20
422.436900
 30
0.0
 10
355.465200
 20
422.436900
 30
0.0
 10
355.465200
 20
403.723900
 30
0.0
 10
347.862200
 20
403.723900
 30
0.0
 10
347.862200
 20
444.878900
 30
0.0
 10
355.465200
 20
444.878900
 30
0.0
 10
355.465200
 20
429.315900
 30
0.0
 10
372.914200
 20
429.315900
 30
0.0
 10
372.914200
 20
444.878900
 30
0.0
 10
380.573200
 20
444.878900
 30
0.0
 10
380.573200
 20
444.878900
 30
0.0
  0
LWPOLYLINE
  5
130
100
AcDbEntity
  8
S&B_Large
 62
7
100
AcDbPolyline
 90
5
 70
0
 10
449.620600
 20
418.472700
 30
0.0
 10
444.034600
 20
437.417700
 30
0.0
 10
438.390600
 20
418.472700
 30
0.0
 10
449.620600
 20
418.472700
 30
0.0
 10
449.620600
 20
418.472700
 30
0.0
  0
LWPOLYLINE
  5
131
100
AcDbEntity
  8
S&B_Large
 62
7
100
AcDbPolyline
 90
10
 70
0
 10
451.635600
 20
411.768700
 30
0.0
 10
436.375600
 20
411.768700
 30
0.0
 10
434.015600
 20
403.723700
 30
0.0
 10
425.894600
 20
403.723700
 30
0.0
 10
439.599600
 20
444.878700
 30
0.0
 10
448.238600
 20
444.878700
 30
0.0
 10
462.116600
 20
403.723700
 30
0.0
 10
453.996600
 20
403.723700
 30
0.0
 10
451.635600
 20
411.768700
 30
0.0
 10
451.635600
 20
411.768700
 30
0.0
  0
LWPOLYLINE
  5
132
100
AcDbEntity
  8
S&B_Large
 62
7
100
AcDbPolyline
 90
12
 70
0
 10
531.626000
 20
444.878900
 30
0.0
 10
539.114000
 20
444.878900
 30
0.0
 10
539.114000
 20
403.723900
 30
0.0
 10
532.491000
 20
403.723900
 30
0.0
 10
514.696000
 20
432.580900
 30
0.0
 10
515.157000
 20
403.723900
 30
0.0
 10
507.728000
 20
403.723900
 30
0.0
 10
507.728000
 20
444.878900
 30
0.0
 10
514.581000
 20
444.878900
 30
0.0
 10
532.549000
 20
415.790900
 30
0.0
 10
531.626000
 20
444.878900
 30
0.0
 10
531.626000
 20
444.878900
 30
0.0
  0
SPLINE
  5
133
100
AcDbEntity
  8
S&B_Large
 62
7
100
AcDbSpline
 70
8
 71
3
 72
8
 73
4
 74
0
 40
0
 40
0
 40
0
 40
0
 40
1
 40
1
 40
1
 40
1
 10
851.382500
 20
410.370200
 30
0.0
 10
855.876500
 20
410.370200
 30
0.0
 10
857.084500
 20
410.370200
 30
0.0
 10
859.045500
 20
411.769200
 30
0.0
  0
SPLINE
  5
134
100
AcDbEntity
  8
S&B_Large
 62
7
100
AcDbSpline
 70
8
 71
3
 72
8
 73
4
 74
0
 40
0
 40
0
 40
0
 40
0
 40
1
 40
1
 40
1
 40
1
 10
859.045500
 20
411.769200
 30
0.0
 10
860.081500
 20
412.525200
 30
0.0
 10
860.887500
 20
414.100200
 30
0.0
 10
860.887500
 20
416.082200
 30
0.0
  0
SPLINE
  5
135
100
AcDbEntity
  8
S&B_Large
 62
7
100
AcDbSpline
 70
8
 71
3
 72
8
 73
4
 74
0
 40
0
 40
0
 40
0
 40
0
 40
1
 40
1
 40
1
 40
1
 10
860.887500
 20
416.082200
 30
0.0
 10
860.887500
 20
417.015200
 30
0.0
 10
860.713500
 20
418.121200
 30
0.0
 10
860.137500
 20
419.173200
 30
0.0
  0
SPLINE
  5
136
100
AcDbEntity
  8
S&B_Large
 62
7
100
AcDbSpline
 70
8
 71
3
 72
8
 73
4
 74
0
 40
0
 40
0
 40
0
 40
0
 40
1
 40
1
 40
1
 40
1
 10
860.137500
 20
419.173200
 30
0.0
 10
858.295500
 20
422.495200
 30
0.0
 10
854.032500
 20
422.495200
 30
0.0
 10
851.440500
 20
422.495200
 30
0.0
  0
LWPOLYLINE
  5
137
100
AcDbEntity
  8
S&B_Large
 62
7
100
AcDbPolyline
 90
3
 70
0
 10
843.896500
 20
422.553200
 30
0.0
 10
843.896500
 20
410.370200
 30
0.0
 10
851.382500
 20
410.370200
 30
0.0
  0
LWPOLYLINE
  5
138
100
AcDbEntity
  8
S&B_Large
 62
7
100
AcDbPolyline
 90
3
 70
0
 10
851.440500
 20
422.495200
 30
0.0
 10
843.896500
 20
422.553200
 30
0.0
 10
843.896500
 20
422.553200
 30
0.0
  0
SPLINE
  5
139
100
AcDbEntity
  8
S&B_Large
 62
7
100
AcDbSpline
 70
8
 71
3
 72
8
 73
4
 74
0
 40
0
 40
0
 40
0
 40
0
 40
1
 40
1
 40
1
 40
1
 10
846.489500
 20
428.325200
 30
0.0
 10
848.618500
 20
428.325200
 30
0.0
 10
850.175500
 20
428.325200
 30
0.0
 10
851.094500
 20
428.383200
 30
0.0
  0
SPLINE
  5
13a
100
AcDbEntity
  8
S&B_Large
 62
7
100
AcDbSpline
 70
8
 71
3
 72
8
 73
4
 74
0
 40
0
 40
0
 40
0
 40
0
 40
1
 40
1
 40
1
 40
1
 10
851.094500
 20
428.383200
 30
0.0
 10
852.998500
 20
428.383200
 30
0.0
 10
854.897500
 20
428.441200
 30
0.0
 10
856.276500
 20
429.198200
 30
0.0
  0
SPLINE
  5
13b
100
AcDbEntity
  8
S&B_Large
 62
7
100
AcDbSpline
 70
8
 71
3
 72
8
 73
4
 74
0
 40
0
 40
0
 40
0
 40
0
 40
1
 40
1
 40
1
 40
1
 10
856.276500
 20
429.198200
 30
0.0
 10
857.891500
 20
430.014200
 30
0.0
 10
858.988500
 20
431.588200
 30
0.0
 10
858.988500
 20
433.453200
 30
0.0
  0
SPLINE
  5
13c
100
AcDbEntity
  8
S&B_Large
 62
7
100
AcDbSpline
 70
8
 71
3
 72
8
 73
4
 74
0
 40
0
 40
0
 40
0
 40
0
 40
1
 40
1
 40
1
 40
1
 10
858.988500
 20
433.453200
 30
0.0
 10
858.988500
 20
435.029200
 30
0.0
 10
858.181500
 20
436.600200
 30
0.0
 10
856.623500
 20
437.534200
 30
0.0
  0
SPLINE
  5
13d
100
AcDbEntity
  8
S&B_Large
 62
7
100
AcDbSpline
 70
8
 71
3
 72
8
 73
4
 74
0
 40
0
 40
0
 40
0
 40
0
 40
1
 40
1
 40
1
 40
1
 10
856.623500
 20
437.534200
 30
0.0
 10
855.012500
 20
438.467200
 30
0.0
 10
854.205500
 20
438.525200
 30
0.0
 10
848.676500
 20
438.584200
 30
0.0
  0
LWPOLYLINE
  5
13e
100
AcDbEntity
  8
S&B_Large
 62
7
100
AcDbPolyline
 90
3
 70
0
 10
843.896500
 20
438.584200
 30
0.0
 10
843.896500
 20
428.325200
 30
0.0
 10
846.489500
 20
428.325200
 30
0.0
  0
LWPOLYLINE
  5
13f
100
AcDbEntity
  8
S&B_Large
 62
7
100
AcDbPolyline
 90
3
 70
0
 10
848.676500
 20
438.584200
 30
0.0
 10
843.896500
 20
438.584200
 30
0.0
 10
843.896500
 20
438.584200
 30
0.0
  0
SPLINE
  5
140
100
AcDbEntity
  8
S&B_Large
 62
7
100
AcDbSpline
 70
8
 71
3
 72
8
 73
4
 74
0
 40
0
 40
0
 40
0
 40
0
 40
1
 40
1
 40
1
 40
1
 10
850.868500
 20
444.879200
 30
0.0
 10
856.276500
 20
444.821200
 30
0.0
 10
857.718500
 20
444.761200
 30
0.0
 10
859.675500
 20
444.180200
 30
0.0
  0
SPLINE
  5
141
100
AcDbEntity
  8
S&B_Large
 62
7
100
AcDbSpline
 70
8
 71
3
 72
8
 73
4
 74
0
 40
0
 40
0
 40
0
 40
0
 40
1
 40
1
 40
1
 40
1
 10
859.675500
 20
444.180200
 30
0.0
 10
863.767500
 20
442.956200
 30
0.0
 10
866.819500
 20
439.282200
 30
0.0
 10
866.819500
 20
434.794200
 30
0.0
  0
SPLINE
  5
142
100
AcDbEntity
  8
S&B_Large
 62
7
100
AcDbSpline
 70
8
 71
3
 72
8
 73
4
 74
0
 40
0
 40
0
 40
0
 40
0
 40
1
 40
1
 40
1
 40
1
 10
866.819500
 20
434.794200
 30
0.0
 10
866.819500
 20
432.987200
 30
0.0
 10
866.244500
 20
430.773200
 30
0.0
 10
865.089500
 20
429.198200
 30
0.0
  0
SPLINE
  5
143
100
AcDbEntity
  8
S&B_Large
 62
7
100
AcDbSpline
 70
8
 71
3
 72
8
 73
4
 74
0
 40
0
 40
0
 40
0
 40
0
 40
1
 40
1
 40
1
 40
1
 10
865.089500
 20
429.198200
 30
0.0
 10
863.824500
 20
427.508200
 30
0.0
 10
862.209500
 20
426.634200
 30
0.0
 10
860.022500
 20
426.225200
 30
0.0
  0
SPLINE
  5
144
100
AcDbEntity
  8
S&B_Large
 62
7
100
AcDbSpline
 70
8
 71
3
 72
8
 73
4
 74
0
 40
0
 40
0
 40
0
 40
0
 40
1
 40
1
 40
1
 40
1
 10
860.022500
 20
426.225200
 30
0.0
 10
864.516500
 20
425.409200
 30
0.0
 10
868.718500
 20
421.738200
 30
0.0
 10
868.718500
 20
415.383200
 30
0.0
  0
SPLINE
  5
145
100
AcDbEntity
  8
S&B_Large
 62
7
100
AcDbSpline
 70
8
 71
3
 72
8
 73
4
 74
0
 40
0
 40
0
 40
0
 40
0
 40
1
 40
1
 40
1
 40
1
 10
868.718500
 20
415.383200
 30
0.0
 10
868.718500
 20
410.662200
 30
0.0
 10
866.358500
 20
406.464200
 30
0.0
 10
861.462500
 20
404.714200
 30
0.0
  0
SPLINE
  5
146
100
AcDbEntity
  8
S&B_Large
 62
7
100
AcDbSpline
 70
8
 71
3
 72
8
 73
4
 74
0
 40
0
 40
0
 40
0
 40
0
 40
1
 40
1
 40
1
 40
1
 10
861.462500
 20
404.714200
 30
0.0
 10
858.869500
 20
403.783200
 30
0.0
 10
856.853500
 20
403.724200
 30
0.0
 10
852.248500
 20
403.724200
 30
0.0
  0
LWPOLYLINE
  5
147
100
AcDbEntity
  8
S&B_Large
 62
7
100
AcDbPolyline
 90
2
 70
0
 10
836.353500
 20
444.879200
 30
0.0
 10
850.868500
 20
444.879200
 30
0.0
  0
LWPOLYLINE
  5
148
100
AcDbEntity
  8
S&B_Large
 62
7
100
AcDbPolyline
 90
4
 70
0
 10
852.248500
 20
403.724200
 30
0.0
 10
836.353500
 20
403.724200
 30
0.0
 10
836.353500
 20
444.879200
 30
0.0
 10
836.353500
 20
444.879200
 30
0.0
  0
SPLINE
  5
149
100
AcDbEntity
  8
S&B_Large
 62
7
100
AcDbSpline
 70
8
 71
3
 72
8
 73
4
 74
0
 40
0
 40
0
 40
0
 40
0
 40
1
 40
1
 40
1
 40
1
 10
926.478100
 20
425.350900
 30
0.0
 10
929.070100
 20
425.350900
 30
0.0
 10
930.051100
 20
425.409900
 30
0.0
 10
931.488100
 20
425.467900
 30
0.0
  0
SPLINE
  5
14a
100
AcDbEntity
  8
S&B_Large
 62
7
100
AcDbSpline
 70
8
 71
3
 72
8
 73
4
 74
0
 40
0
 40
0
 40
0
 40
0
 40
1
 40
1
 40
1
 40
1
 10
931.488100
 20
425.467900
 30
0.0
 10
933.162100
 20
425.526900
 30
0.0
 10
938.632100
 20
425.817900
 30
0.0
 10
938.632100
 20
431.821900
 30
0.0
  0
SPLINE
  5
14b
100
AcDbEntity
  8
S&B_Large
 62
7
100
AcDbSpline
 70
8
 71
3
 72
8
 73
4
 74
0
 40
0
 40
0
 40
0
 40
0
 40
1
 40
1
 40
1
 40
1
 10
938.632100
 20
431.821900
 30
0.0
 10
938.632100
 20
432.694900
 30
0.0
 10
938.574100
 20
435.726900
 30
0.0
 10
935.407100
 20
437.359900
 30
0.0
  0
SPLINE
  5
14c
100
AcDbEntity
  8
S&B_Large
 62
7
100
AcDbSpline
 70
8
 71
3
 72
8
 73
4
 74
0
 40
0
 40
0
 40
0
 40
0
 40
1
 40
1
 40
1
 40
1
 10
935.407100
 20
437.359900
 30
0.0
 10
933.795100
 20
438.174900
 30
0.0
 10
931.835100
 20
438.232900
 30
0.0
 10
927.345100
 20
438.232900
 30
0.0
  0
LWPOLYLINE
  5
14d
100
AcDbEntity
  8
S&B_Large
 62
7
100
AcDbPolyline
 90
3
 70
0
 10
923.830100
 20
438.232900
 30
0.0
 10
923.830100
 20
425.350900
 30
0.0
 10
926.478100
 20
425.350900
 30
0.0
  0
LWPOLYLINE
  5
14e
100
AcDbEntity
  8
S&B_Large
 62
7
100
AcDbPolyline
 90
3
 70
0
 10
927.345100
 20
438.232900
 30
0.0
 10
923.830100
 20
438.232900
 30
0.0
 10
923.830100
 20
438.232900
 30
0.0
  0
SPLINE
  5
14f
100
AcDbEntity
  8
S&B_Large
 62
7
100
AcDbSpline
 70
8
 71
3
 72
8
 73
4
 74
0
 40
0
 40
0
 40
0
 40
0
 40
1
 40
1
 40
1
 40
1
 10
929.243100
 20
444.878900
 30
0.0
 10
934.657100
 20
444.820900
 30
0.0
 10
938.286100
 20
444.820900
 30
0.0
 10
941.857100
 20
441.906900
 30
0.0
  0
SPLINE
  5
150
100
AcDbEntity
  8
S&B_Large
 62
7
100
AcDbSpline
 70
8
 71
3
 72
8
 73
4
 74
0
 40
0
 40
0
 40
0
 40
0
 40
1
 40
1
 40
1
 40
1
 10
941.857100
 20
441.906900
 30
0.0
 10
944.392100
 20
439.807900
 30
0.0
 10
946.349100
 20
436.543900
 30
0.0
 10
946.349100
 20
431.762900
 30
0.0
  0
SPLINE
  5
151
100
AcDbEntity
  8
S&B_Large
 62
7
100
AcDbSpline
 70
8
 71
3
 72
8
 73
4
 74
0
 40
0
 40
0
 40
0
 40
0
 40
1
 40
1
 40
1
 40
1
 10
946.349100
 20
431.762900
 30
0.0
 10
946.349100
 20
423.893900
 30
0.0
 10
940.647100
 20
421.153900
 30
0.0
 10
938.344100
 20
420.455900
 30
0.0
  0
LWPOLYLINE
  5
152
100
AcDbEntity
  8
S&B_Large
 62
7
100
AcDbPolyline
 90
2
 70
0
 10
916.287100
 20
444.878900
 30
0.0
 10
929.243100
 20
444.878900
 30
0.0
  0
LWPOLYLINE
  5
153
100
AcDbEntity
  8
S&B_Large
 62
7
100
AcDbPolyline
 90
9
 70
0
 10
938.344100
 20
420.455900
 30
0.0
 10
947.384100
 20
403.723900
 30
0.0
 10
938.690100
 20
403.723900
 30
0.0
 10
930.628100
 20
418.998900
 30
0.0
 10
923.830100
 20
418.998900
 30
0.0
 10
923.830100
 20
403.723900
 30
0.0
 10
916.287100
 20
403.723900
 30
0.0
 10
916.287100
 20
444.878900
 30
0.0
 10
916.287100
 20
444.878900
 30
0.0
  0
LWPOLYLINE
  5
154
100
AcDbEntity
  8
S&B_Large
 62
7
100
AcDbPolyline
 90
5
 70
0
 10
1013.267600
 20
418.472700
 30
0.0
 10
1007.678600
 20
437.417700
 30
0.0
 10
1002.036600
 20
418.472700
 30
0.0
 10
1013.267600
 20
418.472700
 30
0.0
 10
1013.267600
 20
418.472700
 30
0.0
  0
LWPOLYLINE
  5
155
100
AcDbEntity
  8
S&B_Large
 62
7
100
AcDbPolyline
 90
10
 70
0
 10
1015.282600
 20
411.768700
 30
0.0
 10
1000.021600
 20
411.768700
 30
0.0
 10
997.662600
 20
403.723700
 30
0.0
 10
989.540600
 20
403.723700
 30
0.0
 10
1003.247600
 20
444.878700
 30
0.0
 10
1011.882600
 20
444.878700
 30
0.0
 10
1025.761600
 20
403.723700
 30
0.0
 10
1017.642600
 20
403.723700
 30
0.0
 10
1015.282600
 20
411.768700
 30
0.0
 10
1015.282600
 20
411.768700
 30
0.0
  0
SPLINE
  5
156
100
AcDbEntity
  8
S&B_Large
 62
7
100
AcDbSpline
 70
8
 71
3
 72
8
 73
4
 74
0
 40
0
 40
0
 40
0
 40
0
 40
1
 40
1
 40
1
 40
1
 10
1081.560900
 20
410.661800
 30
0.0
 10
1087.320900
 20
410.661800
 30
0.0
 10
1089.335900
 20
410.953800
 30
0.0
 10
1091.065900
 20
411.594800
 30
0.0
  0
SPLINE
  5
157
100
AcDbEntity
  8
S&B_Large
 62
7
100
AcDbSpline
 70
8
 71
3
 72
8
 73
4
 74
0
 40
0
 40
0
 40
0
 40
0
 40
1
 40
1
 40
1
 40
1
 10
1091.065900
 20
411.594800
 30
0.0
 10
1094.002900
 20
412.759800
 30
0.0
 10
1097.113900
 20
415.323800
 30
0.0
 10
1097.113900
 20
423.893800
 30
0.0
  0
SPLINE
  5
158
100
AcDbEntity
  8
S&B_Large
 62
7
100
AcDbSpline
 70
8
 71
3
 72
8
 73
4
 74
0
 40
0
 40
0
 40
0
 40
0
 40
1
 40
1
 40
1
 40
1
 10
1097.113900
 20
423.893800
 30
0.0
 10
1097.113900
 20
427.740800
 30
0.0
 10
1096.536900
 20
434.036800
 30
0.0
 10
1090.892900
 20
436.776800
 30
0.0
  0
SPLINE
  5
159
100
AcDbEntity
  8
S&B_Large
 62
7
100
AcDbSpline
 70
8
 71
3
 72
8
 73
4
 74
0
 40
0
 40
0
 40
0
 40
0
 40
1
 40
1
 40
1
 40
1
 10
1090.892900
 20
436.776800
 30
0.0
 10
1088.703900
 20
437.768800
 30
0.0
 10
1087.493900
 20
437.826800
 30
0.0
 10
1082.367900
 20
437.884800
 30
0.0
  0
LWPOLYLINE
  5
15a
100
AcDbEntity
  8
S&B_Large
 62
7
100
AcDbPolyline
 90
3
 70
0
 10
1078.338900
 20
437.884800
 30
0.0
 10
1078.338900
 20
410.661800
 30
0.0
 10
1081.560900
 20
410.661800
 30
0.0
  0
LWPOLYLINE
  5
15b
100
AcDbEntity
  8
S&B_Large
 62
7
100
AcDbPolyline
 90
3
 70
0
 10
1082.367900
 20
437.884800
 30
0.0
 10
1078.338900
 20
437.884800
 30
0.0
 10
1078.338900
 20
437.884800
 30
0.0
  0
SPLINE
  5
15c
100
AcDbEntity
  8
S&B_Large
 62
7
100
AcDbSpline
 70
8
 71
3
 72
8
 73
4
 74
0
 40
0
 40
0
 40
0
 40
0
 40
1
 40
1
 40
1
 40
1
 10
1085.305900
 20
444.878800
 30
0.0
 10
1088.820900
 20
444.820800
 30
0.0
 10
1093.079900
 20
444.760800
 30
0.0
 10
1097.338900
 20
441.673800
 30
0.0
  0
SPLINE
  5
15d
100
AcDbEntity
  8
S&B_Large
 62
7
100
AcDbSpline
 70
8
 71
3
 72
8
 73
4
 74
0
 40
0
 40
0
 40
0
 40
0
 40
1
 40
1
 40
1
 40
1
 10
1097.338900
 20
441.673800
 30
0.0
 10
1104.137900
 20
436.834800
 30
0.0
 10
1105.171900
 20
428.556800
 30
0.0
 10
1105.171900
 20
423.951800
 30
0.0
  0
SPLINE
  5
15e
100
AcDbEntity
  8
S&B_Large
 62
7
100
AcDbSpline
 70
8
 71
3
 72
8
 73
4
 74
0
 40
0
 40
0
 40
0
 40
0
 40
1
 40
1
 40
1
 40
1
 10
1105.171900
 20
423.951800
 30
0.0
 10
1105.171900
 20
416.898800
 30
0.0
 10
1102.810900
 20
409.729800
 30
0.0
 10
1096.823900
 20
406.231800
 30
0.0
  0
SPLINE
  5
15f
100
AcDbEntity
  8
S&B_Large
 62
7
100
AcDbSpline
 70
8
 71
3
 72
8
 73
4
 74
0
 40
0
 40
0
 40
0
 40
0
 40
1
 40
1
 40
1
 40
1
 10
1096.823900
 20
406.231800
 30
0.0
 10
1092.791900
 20
403.841800
 30
0.0
 10
1088.530900
 20
403.783800
 30
0.0
 10
1083.751900
 20
403.723800
 30
0.0
  0
LWPOLYLINE
  5
160
100
AcDbEntity
  8
S&B_Large
 62
7
100
AcDbPolyline
 90
2
 70
0
 10
1070.734900
 20
444.878800
 30
0.0
 10
1085.305900
 20
444.878800
 30
0.0
  0
LWPOLYLINE
  5
161
100
AcDbEntity
  8
S&B_Large
 62
7
100
AcDbPolyline
 90
4
 70
0
 10
1083.751900
 20
403.723800
 30
0.0
 10
1070.734900
 20
403.723800
 30
0.0
 10
1070.734900
 20
444.878800
 30
0.0
 10
1070.734900
 20
444.878800
 30
0.0
  0
LWPOLYLINE
  5
162
100
AcDbEntity
  8
S&B_Large
 62
7
100
AcDbPolyline
 90
11
 70
0
 10
1167.656300
 20
419.988800
 30
0.0
 10
1167.656300
 20
403.723800
 30
0.0
 10
1160.171300
 20
403.723800
 30
0.0
 10
1160.171300
 20
419.988800
 30
0.0
 10
1146.580300
 20
444.878800
 30
0.0
 10
1155.162300
 20
444.878800
 30
0.0
 10
1163.970300
 20
427.799800
 30
0.0
 10
1172.897300
 20
444.878800
 30
0.0
 10
1181.363300
 20
444.878800
 30
0.0
 10
1167.656300
 20
419.988800
 30
0.0
 10
1167.656300
 20
419.988800
 30
0.0
  0
ENDSEC
  0
SECTION
  2
OBJECTS
  0
DICTIONARY
  5
C
330
0
100
AcDbDictionary
  3
ACAD_GROUP
350
D
  3
ACAD_MLINESTYLE
350
17
  0
DICTIONARY
  5
D
330
C
100
AcDbDictionary
  0
DICTIONARY
  5
1A
330
C
100
AcDbDictionary
  0
DICTIONARY
  5
17
330
C
100
AcDbDictionary
  3
STANDARD
350
18
  0
DICTIONARY
  5
19
330
C
100
AcDbDictionary
  0
ENDSEC
  0
EOF
